<?xml version="1.0" encoding="utf-8"?>
<svg
  viewBox="233.213 233.213 33.574 32.375"
  width="33.574"
  height="32.375"
  xmlns="http://www.w3.org/2000/svg"
>
  <ellipse
    style="stroke: rgb(0, 0, 0); fill: rgb(16, 20, 30); fill-opacity: 0.56"
    cx="250"
    cy="250"
    rx="16"
    ry="16"
    transform="matrix(0.9999999999999999, 0, 0, 0.9999999999999999, 2.842170943040401e-14, 2.842170943040401e-14)"
  />
  <path
    d="M 254.776 243.001 C 254.916 243.001 255.049 243.029 255.176 243.084 C 255.57 243.236 255.83 243.614 255.833 244.037 L 255.833 255.965 C 255.83 256.387 255.57 256.764 255.177 256.918 C 255.061 256.968 254.927 256.992 254.775 256.992 C 254.484 256.992 254.232 256.893 254.019 256.696 L 249.999 252.771 L 245.979 256.695 C 245.761 256.898 245.509 257 245.223 257 C 245.085 257 244.949 256.972 244.823 256.917 C 244.43 256.764 244.169 256.386 244.166 255.965 L 244.166 244.037 C 244.169 243.614 244.429 243.237 244.822 243.084 C 244.948 243.028 245.085 243 245.223 243.001 L 254.775 243.001 L 254.776 243.001 Z"
    fill="#FFF"
    transform="matrix(0.9999999999999999, 0, 0, 0.9999999999999999, 2.842170943040401e-14, 2.842170943040401e-14)"
  />
</svg>
